# xmcd
#
# Track frame offsets:
#	150
#	12882
#	37142
#	49400
#	63514
#	77607
#	90780
#	104850
#	117080
#	128345
#	140580
#	153807
#	166212
#	179382
#	190250
#	203990
#	234109
#	245742
#	259347
#	272195
#
# Disc length: 3768 seconds
#
# Revision: 2
# Processed by: cddbd v1.5.2PL0 Copyright (c) Steve Scherf et al.
# Submitted via: EasyCDDAExtractor 11.1.0.1
#
DISCID=130eb614
DTITLE=Various Artist - Chess Rhythms Selection
DYEAR=1997
DGENRE=Blues
TTITLE0=Howlin' Wolf - Forty Four
TTITLE1=BB King - The Thrill Is Gone
TTITLE2=Muddy Waters - I Can't Be Satisfied
TTITLE3=Sonny Boy Williamson - Help Me
TTITLE4=Little Walter - Blues With A Feeling
TTITLE5=Howlin' Wolf - Evil
TTITLE6=Howlin' Wolf - Smokestack Lightnin'
TTITLE7=Jimmy Rogers - Chicago Bound
TTITLE8=Bo Diddley - Bo Diddley
TTITLE9=Chuck Berry - School Days
TTITLE10=Little Walter - Blue And Lonesome
TTITLE11=Howlin' Wolf - Spoonful
TTITLE12=Muddy Waters - Louisiana Blues
TTITLE13=Chuck Berry - The Promised Land
TTITLE14=Koko Taylor - Wang Dang Doodle
TTITLE15=Little Milton - I Can't Quit You Baby
TTITLE16=Etta James - I'd Rather Go Blind
TTITLE17=John Lee Hooker - One Bourbon, One Scotch, One Beer
TTITLE18=Big Mama Thornton - Hound Dog
TTITLE19=Buddy Guy - First Time I Met The Blues
EXTD=
EXTT0=
EXTT1=
EXTT2=
EXTT3=
EXTT4=
EXTT5=
EXTT6=
EXTT7=
EXTT8=
EXTT9=
EXTT10=
EXTT11=
EXTT12=
EXTT13=
EXTT14=
EXTT15=
EXTT16=
EXTT17=
EXTT18=
EXTT19=
PLAYORDER=
